# xmcd
#
# Track frame offsets: 
#        150
#        21335
#        42205
#        55072
#        70880
#        96275
#        110622
#        126845
#        144612
#        160837
#        173595
#
# Disc length: 2524 seconds
#
# Revision: 2
# Processed by: cddbd v1.5.2PL0 Copyright (c) Steve Scherf et al.
# Submitted via: ExactAudioCopyFreeDBPlugin 1.0
#
DISCID=9509da0b
DTITLE=MD.45 - The Craving
DYEAR=1996
DGENRE=Punk Metal
TTITLE0=Hell's Motel
TTITLE1=Day The Music Died
TTITLE2=Fight Hate
TTITLE3=Designer Behavior
TTITLE4=The Creed
TTITLE5=My Town
TTITLE6=Voices
TTITLE7=Nothing Is Something
TTITLE8=Hearts Will Bleed
TTITLE9=No Pain
TTITLE10=Roadman
EXTD=YEAR: 1996
EXTT0=
EXTT1=
EXTT2=
EXTT3=
EXTT4=
EXTT5=
EXTT6=
EXTT7=
EXTT8=
EXTT9=
EXTT10=
PLAYORDER=
